<svg width="100" height="100" viewBox="4 4 96 96" xmlns="http://www.w3.org/2000/svg">
  <g transform="translate(0,98) scale(0.1,-0.1)" stroke="none">
    <path d="M498 873 c12 -2 32 -2 45 0 12 2 2 4 -23 4 -25 0 -35 -2 -22 -4z M438 863 c7 -3 16 -2 19 1 4 3 -2 6 -13 5 -11 0 -14 -3 -6 -6z M598 863 c7 -3 16 -2 19 1 4 3 -2 6 -13 5 -11 0 -14 -3 -6 -6z M350 840 c-8 -5 -10 -10 -5 -10 6 0 17 5 25 10 8 5 11 10 5 10 -5 0 -17 -5 -25 -10z M283 803 c-22 -16 -55 -46 -74 -68 -31 -37 -29 -36 21 10 30 28 66 58 80 67 14 9 22 17 19 17 -3 1 -24 -11 -46 -26z M500 809 c-118 -23 -203 -89 -258 -199 -24 -49 -27 -66 -27 -155 1 -81 5 -109 23 -148 14 -30 26 -46 33 -41 37 23 108 237 109 327 0 52 19 44 37 -16 12 -40 42 -77 65 -77 4 0 6 23 5 51 -2 45 1 54 26 75 33 28 57 30 84 6 31 -26 37 -71 14 -114 -18 -37 -18 -38 0 -38 19 0 81 76 113 138 16 31 48 43 61 23 3 -5 -6 -49 -20 -96 -36 -127 -37 -312 0 -361 13 -18 15 -17 50 16 38 37 81 106 92 148 4 17 8 20 14 11 4 -7 6 7 3 32 -3 34 -2 38 5 19 7 -19 9 -8 9 45 0 52 -2 62 -8 40 l-8 -30 -1 35 c-2 47 -41 138 -79 186 -43 53 -131 105 -206 121 -69 14 -73 14 -136 2z M730 817 c0 -3 12 -12 26 -22 15 -9 23 -12 20 -6 -7 11 -46 35 -46 28z M798 763 c6 -11 19 -26 28 -34 10 -8 30 -34 46 -58 15 -25 28 -40 28 -34 0 13 -83 128 -100 138 -9 6 -9 2 -2 -12z M160 670 c-6 -11 -8 -20 -6 -20 3 0 10 9 16 20 6 11 8 20 6 20 -3 0 -10 -9 -16 -20z M537 594 c-10 -10 -9 -28 3 -59 9 -23 13 -25 26 -14 19 16 15 73 -6 77 -9 1 -19 0 -23 -4z M121 574 c0 -11 3 -14 6 -6 3 7 2 16 -1 19 -3 4 -6 -2 -5 -13z M111 534 c0 -11 3 -14 6 -6 3 7 2 16 -1 19 -3 4 -6 -2 -5 -13z M385 464 c-9 -33 -37 -97 -62 -144 l-45 -85 44 -39 c70 -62 131 -88 223 -93 66 -4 90 -1 138 17 61 23 77 41 57 65 -19 23 -40 114 -45 195 -3 41 -5 76 -5 77 0 2 -18 -7 -40 -18 -42 -22 -80 -20 -110 5 -8 8 -33 16 -55 19 -27 4 -47 15 -61 33 l-22 27 -17 -59z M102 470 c0 -14 2 -19 5 -12 2 6 2 18 0 25 -3 6 -5 1 -5 -13z M121 340 c0 -8 4 -22 9 -30 12 -18 12 -2 0 25 -6 13 -9 15 -9 5z M884 265 c-25 -54 -101 -133 -158 -166 -28 -16 -46 -29 -40 -29 16 0 96 53 128 86 32 32 79 100 89 127 11 30 -1 18 -19 -18z M140 285 c0 -29 83 -132 135 -167 17 -11 10 -3 -14 18 -24 21 -62 65 -83 98 -21 32 -38 56 -38 51z M324 85 c11 -8 24 -15 30 -15 5 0 1 7 -10 15 -10 8 -23 14 -29 14 -5 0 -1 -6 9 -14z M458 43 c7 -3 16 -2 19 1 4 3 -2 6 -13 5 -11 0 -14 -3 -6 -6z M578 43 c6 -2 18 -2 25 0 6 3 1 5 -13 5 -14 0 -19 -2 -12 -5z" fill="#F7F869"/>
    <path d="M420 857 c-72 -21 -118 -47 -175 -99 -65 -59 -98 -114 -119 -195 -21 -81 -20 -148 4 -224 76 -247 344 -366 570 -253 117 59 214 188 225 300 l4 49 -9 -43 c-14 -64 -59 -147 -103 -190 -36 -35 -39 -36 -52 -18 -37 49 -36 234 0 361 14 47 23 91 20 96 -13 20 -45 8 -61 -23 -32 -62 -94 -138 -113 -138 -18 0 -18 1 0 38 23 43 17 88 -14 114 -27 24 -51 22 -84 -6 -25 -21 -28 -30 -26 -75 1 -28 -1 -51 -5 -51 -23 0 -53 37 -65 77 -18 60 -37 68 -37 16 -1 -90 -72 -304 -109 -327 -7 -5 -19 11 -33 41 -18 39 -22 67 -23 148 0 89 3 106 27 155 74 150 223 227 384 199 72 -12 163 -62 207 -112 37 -42 77 -126 87 -185 l9 -47 -3 52 c-7 114 -109 254 -230 313 -53 26 -79 33 -148 36 -50 2 -101 -1 -128 -9z m158 -293 c2 -19 -3 -36 -12 -43 -13 -11 -17 -9 -26 14 -17 46 -10 68 20 63 9 -2 16 -16 18 -34z m-93 -101 c22 -3 47 -11 55 -19 30 -25 68 -27 110 -5 22 11 40 20 40 18 0 -1 2 -36 5 -77 5 -81 26 -172 45 -195 20 -24 4 -42 -57 -65 -48 -18 -72 -21 -138 -17 -92 5 -153 31 -223 93 l-44 39 45 85 c25 47 53 111 62 144 l17 59 22 -27 c14 -18 34 -29 61 -33z" fill="#8CBE2C"/>
  </g>
</svg>
